# xmcd
#
# Track frame offsets: 
#        150
#        12400
#        25339
#        37939
#        49946
#        64510
#        78015
#        93992
#        110342
#
# Disc length: 1680 seconds
#
# Revision: 0
# Processed by: cddbd v1.5.1PL2 Copyright (c) Steve Scherf et al.
# Submitted via: ExactAudioCopy v0.95b2
#
DISCID=61068e09
DTITLE=Louie Lee Braddy Jr. - Louie Braddy in Nashville 2004
DYEAR=2004
DGENRE=Country
TTITLE0=The Whiskey Ain't Working Anymore
TTITLE1=You Win Again
TTITLE2=Killin' Time
TTITLE3=Baby's Gotten Good at Goodbye
TTITLE4=I'm So Lonesome I Could Cry
TTITLE5=Gospel Medley
TTITLE6=If Tomorrow Never Comes
TTITLE7=The End of The World
TTITLE8=On The Other Hand
EXTD=
EXTT0=
EXTT1=
EXTT2=
EXTT3=
EXTT4=
EXTT5=
EXTT6=
EXTT7=
EXTT8=
PLAYORDER=
